<?xml version="1.0" encoding="UTF-8"?>
<svg version="1.1" xmlns="http://www.w3.org/2000/svg" width="64" height="64">
<path d="M0 0 C7.69419985 4.37513325 10.80562652 8.25390378 13.1875 16.8125 C13.94812725 23.11484005 12.49984646 28.64723886 8.7578125 33.76953125 C6.81287888 36.06764933 4.82200836 38.23553284 2.59375 40.26171875 C0.97113332 42.05110436 0.41633495 43.52187588 -0.3125 45.8125 C-1.28949724 48.88306275 -2.2277719 50.81437686 -4.8125 52.8125 C-9.0644518 53.28493909 -11.53601506 53.48265459 -15.3125 51.5 C-17.78272111 47.07418719 -17.47686385 42.75070968 -16.8125 37.8125 C-15.13248703 31.99707049 -11.95906704 28.85697984 -7.3046875 25.19140625 C-5.5736733 23.79489747 -5.5736733 23.79489747 -4.75 21.0625 C-4.5603222 18.60654457 -4.5603222 18.60654457 -6.8125 16.8125 C-9.30442611 16.42355086 -9.30442611 16.42355086 -11.8125 17.8125 C-13.04756065 20.04778582 -13.94975471 22.28378179 -14.8203125 24.68359375 C-15.8125 26.8125 -15.8125 26.8125 -18.8125 28.8125 C-24.96265974 29.48342652 -24.96265974 29.48342652 -28.1875 26.9375 C-31.24354599 22.94113217 -30.93773285 20.35514207 -30.375 15.48046875 C-29.13132996 9.58167265 -25.97875562 5.42783786 -21.1875 1.875 C-14.51856892 -2.20045788 -7.3943975 -2.30317299 0 0 Z " fill="#000000" transform="translate(72.8125,54.1875)"/>
<path d="M0 0 C3.5933844 1.37618977 4.65551952 2.42134757 6.61938477 5.72021484 C8.11843096 9.28134421 8.29925442 11.51808528 8.15234375 15.3515625 C8.12462891 16.53234375 8.09691406 17.713125 8.06835938 18.9296875 C7.98083849 21.4011727 7.88966923 23.87253129 7.79492188 26.34375 C7.76849609 27.52195312 7.74207031 28.70015625 7.71484375 29.9140625 C7.67480225 30.9860791 7.63476074 32.0580957 7.59350586 33.16259766 C8.1008558 36.70399164 9.38415208 37.67359892 12 40 C12.375 42.625 12.375 42.625 12 45 C10 47 10 47 7.1875 47.375 C4 47 4 47 1.625 45 C-1.50542589 42.61491361 -3.19026835 42.91428675 -7.0078125 43.1015625 C-10.51722322 42.92265137 -12.43825712 41.2638658 -15 39 C-18.76737688 33.43394674 -18.44864982 27.97300117 -18.375 21.5 C-18.38660156 20.48035156 -18.39820313 19.46070312 -18.41015625 18.41015625 C-18.38330332 11.52685578 -17.57542508 6.965641 -12.9375 1.625 C-8.63735309 -0.75380468 -4.80822696 -0.64162501 0 0 Z M-6 9 C-8.20595109 10.78654061 -8.20595109 10.78654061 -8.22705078 13.15478516 C-8.21657715 14.02409668 -8.20610352 14.8934082 -8.1953125 15.7890625 C-8.18886719 16.73007812 -8.18242187 17.67109375 -8.17578125 18.640625 C-8.15902344 19.62546875 -8.14226563 20.6103125 -8.125 21.625 C-8.11597656 22.61757813 -8.10695313 23.61015625 -8.09765625 24.6328125 C-8.07404116 27.08878134 -8.04110799 29.54427168 -8 32 C-6.02 32.99 -6.02 32.99 -4 34 C-1.78129007 32.20290436 -1.78129007 32.20290436 -1.77294922 29.75341797 C-1.78342285 28.84221191 -1.79389648 27.93100586 -1.8046875 26.9921875 C-1.81113281 26.00605469 -1.81757813 25.01992188 -1.82421875 24.00390625 C-1.84097656 22.97136719 -1.85773437 21.93882813 -1.875 20.875 C-1.88402344 19.83472656 -1.89304687 18.79445313 -1.90234375 17.72265625 C-1.92596253 15.14820908 -1.95889851 12.57421788 -2 10 C-3.89179203 9.3185177 -3.89179203 9.3185177 -6 9 Z " fill="#000000" transform="translate(30,0)"/>
<path d="M0 0 C0.99 0.103125 1.98 0.20625 3 0.3125 C5.38948197 3.89672296 5.30233168 5.68482596 5.4140625 9.94921875 C5.45273437 11.24794922 5.49140625 12.54667969 5.53125 13.88476562 C5.56270517 15.25650573 5.59395251 16.62825061 5.625 18 C5.66319197 19.38348785 5.70224442 20.76695223 5.7421875 22.15039062 C5.83660517 25.5376245 5.92218118 28.92485069 6 32.3125 C7.32 32.3125 8.64 32.3125 10 32.3125 C10.01981934 31.41418457 10.03963867 30.51586914 10.06005859 29.59033203 C10.13809261 26.26159922 10.22478114 22.93332744 10.31738281 19.60498047 C10.35569674 18.1636626 10.39054543 16.72224832 10.421875 15.28076172 C10.46747446 13.21026114 10.52547444 11.14042567 10.5859375 9.0703125 C10.6173584 7.8239502 10.6487793 6.57758789 10.68115234 5.29345703 C11 2.3125 11 2.3125 13 0.3125 C16 -0 16 -0 19 0.3125 C22.20208235 5.11562352 21.3335834 10.37713633 21.31567383 16.02661133 C21.31252651 18.10747269 21.33593288 20.1868938 21.36132812 22.26757812 C21.36360268 23.60156072 21.36430389 24.93554711 21.36328125 26.26953125 C21.36626221 27.47585205 21.36924316 28.68217285 21.37231445 29.92504883 C20.8068894 35.06948988 19.17721833 38.27216753 15.3125 41.6875 C11.29010492 43.66075042 8.39254949 44.17172126 4 43.3125 C-1.00344295 40.85798082 -2.91509953 38.40282828 -5 33.3125 C-5.37231445 29.81738281 -5.37231445 29.81738281 -5.36328125 26.015625 C-5.36377975 25.34078064 -5.36427826 24.66593628 -5.36479187 23.97064209 C-5.36246577 22.55543039 -5.35282436 21.14021341 -5.33618164 19.72509766 C-5.31241393 17.5546404 -5.31565256 15.38539963 -5.32226562 13.21484375 C-5.27108578 0.54907143 -5.27108578 0.54907143 0 0 Z " fill="#000000" transform="translate(48,-0.3125)"/>
<path d="M0 0 C0.97195312 -0.020625 1.94390625 -0.04125 2.9453125 -0.0625 C3.87859375 -0.06765625 4.811875 -0.0728125 5.7734375 -0.078125 C6.63114746 -0.0874707 7.48885742 -0.09681641 8.37255859 -0.10644531 C11.12121498 0.32852524 11.95245418 1.06706506 13.625 3.25 C14.73331468 6.15932603 15.04043821 8.15517112 13.91796875 11.11328125 C9.80500734 18.83053394 4.5309219 26.01971898 -0.375 33.25 C0.54023437 33.28738281 1.45546875 33.32476562 2.3984375 33.36328125 C3.58695313 33.42902344 4.77546875 33.49476562 6 33.5625 C7.18335937 33.62050781 8.36671875 33.67851563 9.5859375 33.73828125 C10.58882812 33.90714844 11.59171875 34.07601562 12.625 34.25 C14.625 37.25 14.625 37.25 14.3125 39.875 C13.625 42.25 13.625 42.25 12.625 43.25 C9.38514656 43.58413632 6.12986547 43.57499508 2.875 43.625 C1.51375 43.68107422 1.51375 43.68107422 0.125 43.73828125 C-4.37915199 43.79754641 -6.72559233 43.67290695 -10.578125 41.1640625 C-12.375 38.25 -12.375 38.25 -12.48828125 34.94140625 C-11.13952248 30.46920611 -9.1339182 27.05382407 -6.5625 23.1875 C-6.12357422 22.50623047 -5.68464844 21.82496094 -5.23242188 21.12304688 C-3.96057123 19.15574149 -2.67199209 17.2008016 -1.375 15.25 C-0.97361816 14.64559082 -0.57223633 14.04118164 -0.15869141 13.41845703 C0.7670808 12.02755467 1.69569384 10.6385437 2.625 9.25 C1.70976563 9.28480469 0.79453125 9.31960938 -0.1484375 9.35546875 C-1.33695313 9.38253906 -2.52546875 9.40960938 -3.75 9.4375 C-5.52503906 9.48970703 -5.52503906 9.48970703 -7.3359375 9.54296875 C-8.84027344 9.39794922 -8.84027344 9.39794922 -10.375 9.25 C-12.375 6.25 -12.375 6.25 -12.0625 3.625 C-10.50522254 -1.75468577 -4.79001731 0.02521062 0 0 Z " fill="#000000" transform="translate(102.375,-0.25)"/>
<path d="M0 0 C3.5 0.125 3.5 0.125 4.5 1.125 C4.61353016 4.05865746 4.66418708 6.96788462 4.66796875 9.90234375 C4.67129715 10.78402725 4.67462555 11.66571075 4.67805481 12.57411194 C4.68312783 14.44287594 4.68546302 16.31164904 4.68530273 18.18041992 C4.68748808 21.04686344 4.70563655 23.9129216 4.72460938 26.77929688 C4.72754339 28.59114451 4.72952813 30.40299398 4.73046875 32.21484375 C4.73765427 33.0763353 4.74483978 33.93782684 4.75224304 34.82542419 C4.7288216 40.8961784 4.7288216 40.8961784 2.5 43.125 C0 43.375 0 43.375 -2.5 43.125 C-5.16896431 40.45603569 -4.73824462 38.45376593 -4.75224304 34.82542419 C-4.74505753 33.96393265 -4.73787201 33.1024411 -4.73046875 32.21484375 C-4.73001053 31.33220352 -4.72955231 30.44956329 -4.7290802 29.54017639 C-4.72605687 27.67317359 -4.71816817 25.80617333 -4.70581055 23.93920898 C-4.68755226 21.07071061 -4.68530084 18.20253479 -4.68554688 15.33398438 C-4.68063188 13.52343469 -4.67480364 11.71288721 -4.66796875 9.90234375 C-4.66685593 9.03882797 -4.6657431 8.17531219 -4.66459656 7.28562927 C-4.60739968 0.16454999 -4.60739968 0.16454999 0 0 Z " fill="#000000" transform="translate(79.5,-0.125)"/>
<path d="M0 0 C2.5 1.5 2.5 1.5 4 4 C4.791013 8.02098277 4.62153384 10.96411027 2.5 14.5 C-1.03588973 16.62153384 -3.97901723 16.791013 -8 16 C-10.5 14.5 -10.5 14.5 -12 12 C-12.791013 7.97901723 -12.62153384 5.03588973 -10.5 1.5 C-6.96411027 -0.62153384 -4.02098277 -0.791013 0 0 Z " fill="#000000" transform="translate(68,112)"/>
</svg>
